<?xml version="1.0" encoding="utf-8"?>
<svg version="1.1" id="Capa_1" x="0px" y="0px" viewBox="0 0 483.013 483.013" style="enable-background:new 0 0 483.013 483.013;" xmlns="http://www.w3.org/2000/svg">
  <g/>
  <g/>
  <g/>
  <g/>
  <g/>
  <g/>
  <g/>
  <g/>
  <g/>
  <g/>
  <g/>
  <g/>
  <g/>
  <g/>
  <g/>
  <path d="M 498.867 190.413 L 400.401 19.886 C 392.059 5.723 379.067 14.128 362.647 13.991 L 135.438 19.24 C 119.018 19.377 112.582 27.986 104.235 42.148 L 86.745 72.852 L 48.921 139.25 L 23.552 184.055 C 15.461 198.354 14.183 217.285 22.274 231.587 L 122.789 407.541 C 131.137 421.705 150.997 428.487 167.416 428.624 C 166.73 428.227 337.666 429.384 346.321 427.708 C 362.743 427.571 372.606 425.351 382.67 412.354 C 392.69 399.414 471.568 230.168 471.478 230.186 C 93.942 249.435 506.961 204.714 498.867 190.413" style="fill: none; stroke: rgb(0, 0, 0); stroke-width: 2px;" transform="matrix(0.989606, -0.143808, 0.143808, 0.989606, -27.324451, 39.176943)"/>
  <path d="M 479.291 226.506 L 380.822 55.977 C 372.848 42.175 358.138 33.685 342.214 33.685 L 145.286 33.685 C 129.363 33.685 114.658 42.175 106.678 55.977 L 8.216 226.506 C 0.255 240.307 0.255 257.291 8.216 271.094 L 106.678 441.637 C 114.658 455.44 129.363 463.931 145.286 463.931 L 342.213 463.931 C 358.138 463.931 372.848 455.44 380.821 441.637 L 479.291 271.094 C 487.251 257.291 487.251 240.307 479.291 226.506 Z" style="fill: rgba(0, 0, 0, 0);" transform="matrix(0.989606, -0.143808, 0.143808, 0.989606, -33.246905, 37.639843)"/>
</svg>