<?xml version="1.0" encoding="UTF-8" standalone="no"?>
<!DOCTYPE svg PUBLIC "-//W3C//DTD SVG 1.1//EN" "http://www.w3.org/Graphics/SVG/1.1/DTD/svg11.dtd">
<svg width="288.00" height="288.00" viewBox="0.00 0.00 1200.00 1200.00" xmlns="http://www.w3.org/2000/svg" xmlns:xlink="http://www.w3.org/1999/xlink">
<g stroke-linecap="round" transform="translate(-374.00, 0.00)" id="Layer_1_Copy">
<path d="M1013.44,939.59 L691.43,940.00 L417.43,489.53 L692.50,38.37" fill="none" stroke="rgb(14, 30, 48)" stroke-width="55.00" stroke-opacity="1.00" stroke-linejoin="miter"/>
<path d="M936.46,38.05 L1241.57,37.66 L1515.57,488.13 L1240.50,939.30" fill="none" stroke="rgb(14, 30, 48)" stroke-width="55.00" stroke-opacity="1.00" stroke-linejoin="miter"/>
<path d="M877.01,130.60 L1291.71,130.07" fill="none" stroke="rgb(14, 30, 48)" stroke-width="55.00" stroke-opacity="1.00" stroke-linejoin="round"/>
<path d="M639.11,845.35 L1077.71,844.79" fill="none" stroke="rgb(14, 30, 48)" stroke-width="55.00" stroke-opacity="1.00" stroke-linejoin="round"/>
<path d="M596.94,385.59 L752.01,131.25" fill="none" stroke="rgb(14, 30, 48)" stroke-width="55.00" stroke-opacity="1.00" stroke-linejoin="round"/>
<path d="M1191.26,840.23 L1348.72,581.96" fill="none" stroke="rgb(14, 30, 48)" stroke-width="55.00" stroke-opacity="1.00" stroke-linejoin="round"/>
<path d="M696.47,748.96 L477.59,389.12" fill="none" stroke="rgb(14, 30, 48)" stroke-width="55.00" stroke-opacity="1.00" stroke-linejoin="round"/>
<path d="M1457.22,570.33 L1248.15,227.98" fill="none" stroke="rgb(14, 30, 48)" stroke-width="55.00" stroke-opacity="1.00" stroke-linejoin="round"/>
<path d="M655.54,486.70 L815.33,224.62 L1134.29,224.21 L1293.46,485.89 L1133.67,747.97 L814.71,748.38 L655.54,486.70 Z" fill="none" stroke="rgb(14, 30, 48)" stroke-width="55.00" stroke-opacity="1.00" stroke-linejoin="miter"/>
<path d="M655.54,486.70 L815.33,224.62 L1134.29,224.21 L1293.46,485.89 L1133.67,747.97 L814.71,748.38 L655.54,486.70 Z" fill="none" stroke="rgb(14, 30, 48)" stroke-width="55.00" stroke-opacity="1.00" stroke-linejoin="miter"/>
<path d="M1139.14,748.60 L578.06,749.32" fill="none" stroke="rgb(14, 30, 48)" stroke-width="55.00" stroke-opacity="1.00" stroke-linejoin="round"/>
<path d="M817.72,223.51 L1351.33,222.83" fill="none" stroke="rgb(14, 30, 48)" stroke-width="55.00" stroke-opacity="1.00" stroke-linejoin="round"/>
<path d="M810.80,744.32 L536.58,293.50" fill="none" stroke="rgb(14, 30, 48)" stroke-width="55.00" stroke-opacity="1.00" stroke-linejoin="round"/>
<path d="M1142.83,235.17 L1404.06,664.64" fill="none" stroke="rgb(14, 30, 48)" stroke-width="55.00" stroke-opacity="1.00" stroke-linejoin="round"/>
<path d="M658.44,482.95 L929.86,37.76" fill="none" stroke="rgb(14, 30, 48)" stroke-width="55.00" stroke-opacity="1.00" stroke-linejoin="round"/>
<path d="M1289.08,498.26 L1018.23,941.49" fill="none" stroke="rgb(14, 30, 48)" stroke-width="55.00" stroke-opacity="1.00" stroke-linejoin="round"/>
<path d="M1237.02,935.49 L1136.13,747.88" fill="none" stroke="rgb(14, 30, 48)" stroke-width="55.00" stroke-opacity="1.00" stroke-linejoin="round"/>
<path d="M817.32,229.38 L693.47,39.79" fill="none" stroke="rgb(14, 30, 48)" stroke-width="55.00" stroke-opacity="1.00" stroke-linejoin="round"/>
</g>
</svg>
